<svg xmlns="http://www.w3.org/2000/svg" viewBox="0 0 128 128" id="ethereum"><path fill="#5762a0" d="M64 128C28.7 128 0 99.3 0 64S28.7 0 64 0s64 28.7 64 64-28.7 64-64 64z"></path><path fill="#636daa" d="M64 120.1c-32 0-58.1-26-58.1-58.1S32 4 64 4s58.1 26 58.1 58.1-26.1 58-58.1 58z"></path><path fill="#8a92c8" d="M64 8c29.8 0 54.1 24.3 54.1 54.1S93.8 116.2 64 116.2 9.9 91.9 9.9 62.1 34.2 8 64 8m0-8C29.7 0 1.9 27.8 1.9 62.1s27.8 62.1 62.1 62.1 62.1-27.8 62.1-62.1S98.3 0 64 0z"></path><path fill="#5762a0" d="M68.1 85.6v22l27.2-38.4zM94.3 62.1 68.1 18.5v31.7zM68.1 52.7v27.1l26-15.3zM39.5 62.1l26.3-43.6v31.7zM65.8 52.7v27.1L39.7 64.5zM65.8 85.6v22L38.5 69.2z"></path><path fill="#5762a0" d="M13.6 65.6c0-29.7 24.2-54 54-54 13.9 0 26.6 5.3 36.2 13.9C94 14.7 79.7 7.7 63.8 7.7c-29.7 0-54 24.2-54 54 0 15.9 6.9 30.1 17.8 40-8.8-9.4-14-22.2-14-36.1z"></path><path fill="#8a92c8" d="M65.2 84.6v22l27.2-38.4zM91.4 61.2 65.2 17.5v31.7zM65.2 51.7v27.1l26-15.2zM36.6 61.2l26.3-43.7v31.7zM62.9 51.7v27.1L36.8 63.6zM62.8 84.6v22L35.6 68.2z"></path></svg>